<?xml version="1.0" encoding="UTF-8"?>
<svg version="1.1" xmlns="http://www.w3.org/2000/svg" width="171" height="36">
<path d="M0 0 C356.4 0 712.8 0 1080 0 C1080 356.4 1080 712.8 1080 1080 C723.6 1080 367.2 1080 0 1080 C0 723.6 0 367.2 0 0 Z " fill="#FEFEFF" transform="translate(0,0)"/>
<path d="M0 0 C8.62400003 7.36886388 12.56034823 15.49590744 14.0390625 26.8984375 C14.41133744 37.62672451 10.37830184 46.86280602 3.375 54.8125 C-5.21375067 62.40255873 -12.49256202 66.78659458 -24.1875 66.625 C-24.97833984 66.61525146 -25.76917969 66.60550293 -26.58398438 66.59545898 C-37.04260915 66.27856351 -43.49266798 62.8546033 -51.046875 55.62109375 C-59.96561255 46.04113945 -62.07825992 36.48330372 -61.76171875 23.72265625 C-61.33975421 17.34526788 -58.84877641 12.43240997 -55.3125 7.1875 C-54.590625 6.094375 -53.86875 5.00125 -53.125 3.875 C-38.10699242 -10.47554058 -16.67343506 -12.60913224 0 0 Z " fill="#FCFCFF" transform="translate(387.3125,510.8125)"/>
<path d="M0 0 C8.62400003 7.36886388 12.56034823 15.49590744 14.0390625 26.8984375 C14.41133744 37.62672451 10.37830184 46.86280602 3.375 54.8125 C-5.21375067 62.40255873 -12.49256202 66.78659458 -24.1875 66.625 C-24.97833984 66.61525146 -25.76917969 66.60550293 -26.58398438 66.59545898 C-37.04260915 66.27856351 -43.49266798 62.8546033 -51.046875 55.62109375 C-59.96561255 46.04113945 -62.07825992 36.48330372 -61.76171875 23.72265625 C-61.33975421 17.34526788 -58.84877641 12.43240997 -55.3125 7.1875 C-54.590625 6.094375 -53.86875 5.00125 -53.125 3.875 C-38.10699242 -10.47554058 -16.67343506 -12.60913224 0 0 Z M-49.04296875 8.07421875 C-55.5514738 16.25404362 -57.30436085 23.77296105 -56.3125 34.1875 C-54.67783264 42.74225918 -50.17300525 50.4745943 -43.0625 55.5625 C-35.53339872 60.10266158 -27.10639835 62.56438807 -18.3125 61.1875 C-8.04912595 58.11243018 -0.9262581 53.43870781 4.64453125 44.3125 C8.50892053 36.43898776 8.98575421 27.86250342 7.03515625 19.3359375 C3.91827047 10.69427135 -2.30540437 3.67219982 -10.3125 -0.8125 C-24.14307763 -6.73989041 -39.17352295 -2.68637339 -49.04296875 8.07421875 Z " fill="#665AFF" transform="translate(387.3125,510.8125)"/>
<path d="M0 0 C4.43973711 2.55470906 7.57699621 5.34369867 9.72265625 10.08203125 C10.66467953 15.92061301 10.08756672 21.16856331 7.109375 26.3203125 C4.03366574 30.22776285 0.3299269 32.6232222 -4.5859375 33.48828125 C-9.50664733 33.68743308 -13.15612058 32.9210961 -17.27734375 30.08203125 C-21.46657526 25.83379648 -24.40675089 22.55906918 -24.65234375 16.45703125 C-24.57945669 10.85282637 -23.03381516 7.21987031 -19.27734375 3.08203125 C-13.90896746 -1.74133222 -6.67090837 -2.68895963 0 0 Z " fill="#6A5FFF" transform="translate(370.27734375,523.91796875)"/>
<path d="M0 0 C3.2702574 2.11109685 6.2424884 4.4849768 8 8 C8.0450914 12.59030461 7.57225792 16.11392322 5.0625 20 C1.5723326 23.38440475 -1.0634571 23.27531077 -5.7421875 23.22265625 C-8.80267911 22.92084306 -10.63453205 21.93538287 -13 20 C-15.8288298 15.7567553 -15.65268001 11.98265471 -15 7 C-11.39456734 0.81925829 -7.03966436 -0.95453076 0 0 Z " fill="#FBFBFF" transform="translate(367,528)"/>
<path d="M0 0 C2.625 0.375 2.625 0.375 5 1 C5.625 3.375 5.625 3.375 6 6 C5.34 6.66 4.68 7.32 4 8 C1.375 7.625 1.375 7.625 -1 7 C-1.625 4.625 -1.625 4.625 -2 2 C-1.34 1.34 -0.68 0.68 0 0 Z " fill="#857CFF" transform="translate(378,519)"/>
</svg>
