<?xml version="1.0" encoding="UTF-8"?>
<svg version="1.1" xmlns="http://www.w3.org/2000/svg" width="500" height="500">
<path d="M0 0 C2.75 -0.375 2.75 -0.375 6 0 C8.82128623 3.36986966 10.54283085 6.87135407 12 11 C12.09087891 9.93458984 12.09087891 9.93458984 12.18359375 8.84765625 C12.26738281 7.92855469 12.35117188 7.00945312 12.4375 6.0625 C12.51871094 5.14597656 12.59992188 4.22945312 12.68359375 3.28515625 C13 1 13 1 14 0 C16.10221693 -0.09968672 18.20792604 -0.12968203 20.3125 -0.125 C21.46363281 -0.12757813 22.61476562 -0.13015625 23.80078125 -0.1328125 C26.42490778 -0.0238744 28.49158367 0.34459431 31 1 C31.33 0.67 31.66 0.34 32 0 C33.39025406 -0.11356149 34.78613341 -0.15951393 36.1809082 -0.17700195 C37.06885574 -0.18983719 37.95680328 -0.20267242 38.87165833 -0.21589661 C39.83826889 -0.22328354 40.80487946 -0.23067047 41.80078125 -0.23828125 C42.78870163 -0.246353 43.77662201 -0.25442474 44.79447937 -0.26274109 C46.89023066 -0.27660039 48.9860047 -0.28731424 51.08178711 -0.29516602 C54.28868405 -0.31237222 57.49454865 -0.35624129 60.70117188 -0.40039062 C62.7343674 -0.41051759 64.76757171 -0.41903368 66.80078125 -0.42578125 C68.24158806 -0.45204338 68.24158806 -0.45204338 69.71150208 -0.47883606 C76.35419444 -0.45718066 76.35419444 -0.45718066 79.65307617 1.87817383 C81 4 81 4 80.75 6.375 C80.37875 7.674375 80.37875 7.674375 80 9 C79.96227087 10.9996441 79.95350094 13.00054061 80 15 C77.69 15 75.38 15 73 15 C72.87625 14.195625 72.7525 13.39125 72.625 12.5625 C72.315625 11.2940625 72.315625 11.2940625 72 10 C71.01 9.505 71.01 9.505 70 9 C70 10.98 70 12.96 70 15 C54.49 15 38.98 15 23 15 C22.67 13.35 22.34 11.7 22 10 C21.34 9.67 20.68 9.34 20 9 C20 10.98 20 12.96 20 15 C15.05 15 10.1 15 5 15 C4.34 13.68 3.68 12.36 3 11 C1.01508358 11.26676204 1.01508358 11.26676204 -1 12 C-1.33 12.99 -1.66 13.98 -2 15 C-2.99 15 -3.98 15 -5 15 C-3.33333333 10 -1.66666667 5 0 0 Z M20 3 C20.33 4.32 20.66 5.64 21 7 C21.66 6.67 22.32 6.34 23 6 C23 5.01 23 4.02 23 3 C22.01 3 21.02 3 20 3 Z M39 3 C39 4.32 39 5.64 39 7 C40.32 7 41.64 7 43 7 C43 7.66 43 8.32 43 9 C41.68 9 40.36 9 39 9 C39 10.32 39 11.64 39 13 C41.64 13 44.28 13 47 13 C47 9.37 47 5.74 47 2 C44.34223434 2 41.62576483 2.61807057 39 3 Z M55 3 C55 4.32 55 5.64 55 7 C55.99 7 56.98 7 58 7 C58 7.66 58 8.32 58 9 C57.01 9 56.02 9 55 9 C55 10.32 55 11.64 55 13 C57.31 13 59.62 13 62 13 C62 9.7 62 6.4 62 3 C59.69 3 57.38 3 55 3 Z M70 3 C70.33 4.32 70.66 5.64 71 7 C71.66 6.67 72.32 6.34 73 6 C72.67 5.01 72.34 4.02 72 3 C71.34 3 70.68 3 70 3 Z M0 7 C1 9 1 9 1 9 Z M30 7 C30 10 30 10 30 10 Z " fill="#178BA1" transform="translate(216,228)"/>
<path d="M0 0 C3.0625 2 3.0625 2 5 4 C5.33 2.68 5.66 1.36 6 0 C8.64 0 11.28 0 14 0 C14 3.96 14 7.92 14 12 C15.32 12 16.64 12 18 12 C18 8.04 18 4.08 18 0 C23.94 0 29.88 0 36 0 C36 0.66 36 1.32 36 2 C33.36 2 30.72 2 28 2 C28 3.32 28 4.64 28 6 C29.32 6 30.64 6 32 6 C32 6.99 32 7.98 32 9 C30.68 9 29.36 9 28 9 C28 10.32 28 11.64 28 13 C30.64 13 33.28 13 36 13 C36 13.66 36 14.32 36 15 C29.66666667 15 23.33333333 15 17 15 C16.2884375 15.04640625 15.576875 15.0928125 14.84375 15.140625 C12.50602487 15.24971884 10.32345473 15.29421773 8 15 C5.9375 13 5.9375 13 5 11 C5 12.65 5 14.3 5 16 C2.77009273 15.93965068 0.5409464 15.8507725 -1.6875 15.75 C-2.92886719 15.70359375 -4.17023438 15.6571875 -5.44921875 15.609375 C-9.47134651 14.91910885 -11.19559015 13.92542566 -14 11 C-14.625 7.5 -14.625 7.5 -14 4 C-10.28407268 -0.6748763 -5.59211373 -1.05168142 0 0 Z M-5 2 C-6.23267348 3.00836062 -6.23267348 3.00836062 -6.09765625 5.06640625 C-6.08605469 5.89011719 -6.07445312 6.71382813 -6.0625 7.5625 C-6.05347656 8.38878906 -6.04445312 9.21507812 -6.03515625 10.06640625 C-6.02355469 10.70449219 -6.01195312 11.34257812 -6 12 C-5.01 12 -4.02 12 -3 12 C-3 9.03 -3 6.06 -3 3 C-3.66 2.67 -4.32 2.34 -5 2 Z " fill="#0F92AA" transform="translate(222,254)"/>
<path d="M0 0 C3.95994308 4.06994149 5.87207953 7.86831748 6.10546875 13.58203125 C5.89147809 19.37563014 5.04791588 23.46427511 0.8671875 27.625 C-3.62978204 30.93657589 -8.55780964 32.35827602 -14.125 31.9375 C-19.57422094 30.61914009 -23.26853106 29.37702897 -26.58203125 24.828125 C-29.36076215 19.8983655 -30.77503868 15.80137211 -29.70703125 10.171875 C-27.98408283 4.87928207 -25.67193061 1.05775202 -20.9375 -1.9375 C-19.968125 -2.288125 -18.99875 -2.63875 -18 -3 C-17.38125 -3.2475 -16.7625 -3.495 -16.125 -3.75 C-10.21445166 -4.44535863 -4.9790983 -3.1685171 0 0 Z M-24 5 C-25.89978423 8.0633199 -26.27183824 10.41852871 -26.25 14 C-26.25515625 14.845625 -26.2603125 15.69125 -26.265625 16.5625 C-25.9006333 19.91183563 -24.9093389 22.01832732 -22.625 24.484375 C-18.30312528 27.85045051 -14.83562417 28.73401266 -9.36328125 28.41015625 C-4.9503076 27.64426826 -2.33567651 25.83503277 0.28515625 22.234375 C2.66525466 18.13576486 3.64956921 14.65134277 2.7421875 9.95703125 C0.97843156 5.30628531 -2.27461659 1.96789801 -6.5625 -0.4375 C-13.76129585 -2.09876058 -18.64462599 0.07884551 -24 5 Z " fill="#4042BB" transform="translate(180,236)"/>
<path d="M0 0 C5.94 0 11.88 0 18 0 C18 0.66 18 1.32 18 2 C15.36 2 12.72 2 10 2 C10 3.32 10 4.64 10 6 C11.32 6 12.64 6 14 6 C14 6.99 14 7.98 14 9 C12.68 9 11.36 9 10 9 C10 10.32 10 11.64 10 13 C12.64 13 15.28 13 18 13 C18 13.66 18 14.32 18 15 C11.66666667 15 5.33333333 15 -1 15 C-2.08474609 15.05220703 -2.08474609 15.05220703 -3.19140625 15.10546875 C-3.97386719 15.13253906 -4.75632813 15.15960938 -5.5625 15.1875 C-6.34753906 15.22230469 -7.13257813 15.25710938 -7.94140625 15.29296875 C-8.62074219 15.19628906 -9.30007812 15.09960938 -10 15 C-10.66 14.01 -11.32 13.02 -12 12 C-11.38511719 12.08378906 -10.77023438 12.16757812 -10.13671875 12.25390625 C-9.32847656 12.35574219 -8.52023438 12.45757812 -7.6875 12.5625 C-6.88699219 12.66691406 -6.08648437 12.77132813 -5.26171875 12.87890625 C-2.83182884 13.14755178 -2.83182884 13.14755178 0 12 C0 8.04 0 4.08 0 0 Z " fill="#0396B1" transform="translate(240,254)"/>
<path d="M0 0 C4.95 0.99 4.95 0.99 10 2 C10 1.34 10 0.68 10 0 C11.65 0 13.3 0 15 0 C15 4.29 15 8.58 15 13 C10.38 13 5.76 13 1 13 C0.29826347 8.61414671 -0.10834375 4.44209357 0 0 Z M7 6 C7 9 7 9 7 9 Z " fill="#0893AE" transform="translate(239,229)"/>
<path d="M0 0 C1.17755859 0.02320313 1.17755859 0.02320313 2.37890625 0.046875 C4.4375 0.25 4.4375 0.25 6.4375 1.25 C6.4375 1.91 6.4375 2.57 6.4375 3.25 C4.1275 3.25 1.8175 3.25 -0.5625 3.25 C0.55125 3.70375 1.665 4.1575 2.8125 4.625 C6.4375 6.25 6.4375 6.25 8.4375 8.25 C8.25 10.75 8.25 10.75 7.4375 13.25 C3.73348872 15.71934085 0.73162135 15.69928433 -3.5625 15.25 C-6.0625 14.25 -6.0625 14.25 -7.5625 13.25 C-7.5625 12.59 -7.5625 11.93 -7.5625 11.25 C-4.9225 11.91 -2.2825 12.57 0.4375 13.25 C0.4375 12.59 0.4375 11.93 0.4375 11.25 C-1.8725 10.59 -4.1825 9.93 -6.5625 9.25 C-7.25 6.4375 -7.25 6.4375 -7.5625 3.25 C-5.38863059 0.18811204 -3.64847272 -0.12021327 0 0 Z " fill="#0495B2" transform="translate(265.5625,253.75)"/>
<path d="M0 0 C0.33 0 0.66 0 1 0 C1.17015625 0.91523438 1.3403125 1.83046875 1.515625 2.7734375 C1.75796875 3.96195313 2.0003125 5.15046875 2.25 6.375 C2.48203125 7.55835938 2.7140625 8.74171875 2.953125 9.9609375 C3.68070688 13.06624732 3.68070688 13.06624732 5.921875 14.2890625 C6.60765625 14.52367187 7.2934375 14.75828125 8 15 C8.99 15.66 9.98 16.32 11 17 C15.77873998 17.70735222 20.41607257 17.82219066 24.5625 15.125 C27.03988626 13.23715667 27.03988626 13.23715667 28 11 C28.99 11 29.98 11 31 11 C31.33 10.34 31.66 9.68 32 9 C32.4375 11.125 32.4375 11.125 32 14 C28.2430578 18.57318261 23.85397919 21.0756875 18 22 C12.46762426 22.0766864 7.15605872 20.83481747 3 17 C0.34916986 13.32469444 -2.15655106 9.45698195 -1.859375 4.79296875 C-1.3125 2.875 -1.3125 2.875 0 0 Z " fill="#322ECF" transform="translate(152,246)"/>
<path d="M0 0 C1.18142578 0.14888672 1.18142578 0.14888672 2.38671875 0.30078125 C4.3125 0.6875 4.3125 0.6875 5.3125 1.6875 C5.35313832 3.35367115 5.355221 5.02138095 5.3125 6.6875 C4.879375 6.213125 4.44625 5.73875 4 5.25 C2.28940387 3.45063043 2.28940387 3.45063043 -0.6875 2.6875 C-0.6875 5.9875 -0.6875 9.2875 -0.6875 12.6875 C3.20709074 11.00372777 3.20709074 11.00372777 5.3125 8.6875 C5 11.0625 5 11.0625 4.3125 13.6875 C0.68771031 16.10402646 -0.6924851 15.89316545 -4.80859375 15.2109375 C-6.6875 14.6875 -6.6875 14.6875 -8.75 13.1875 C-10.17140452 9.39708794 -10.03902004 5.51311409 -8.6875 1.6875 C-5.74960275 -0.46392476 -3.52863134 -0.48409323 0 0 Z " fill="#0992AA" transform="translate(204.6875,228.3125)"/>
<path d="M0 0 C2.75 -0.375 2.75 -0.375 6 0 C9.45280259 4.12418087 12 8.55865087 12 14 C6.375 14.25 6.375 14.25 3 12 C1.68 12 0.36 12 -1 12 C-1.33 12.99 -1.66 13.98 -2 15 C-2.99 15 -3.98 15 -5 15 C-3.33333333 10 -1.66666667 5 0 0 Z M0 7 C1 9 1 9 1 9 Z " fill="#0495B1" transform="translate(216,228)"/>
<path d="M0 0 C2.28152547 1.65213913 2.89821867 2.72373638 3.875 5.375 C4.03788731 8.79563345 2.9916082 10.27075913 1 13 C-1 15 -1 15 -4.875 15.375 C-7.80850708 15.27899431 -8.91241536 15.05255079 -11.5 13.5 C-13.60819617 9.98633972 -13.82934956 6.99894292 -13 3 C-9.10045152 -2.24422037 -5.81215786 -2.42173244 0 0 Z M-8.8125 3.1875 C-10.26103335 4.99801207 -10.26103335 4.99801207 -9.8125 7.5625 C-9.15372967 10.14441272 -9.15372967 10.14441272 -7 12 C-3.70285207 11.67028521 -2.3773161 11.3773161 0 9 C-0.32971479 5.70285207 -0.6226839 4.3773161 -3 2 C-6.80350374 1.63464916 -6.80350374 1.63464916 -8.8125 3.1875 Z " fill="#4A49CA" transform="translate(173,243)"/>
<path d="M0 0 C2.29160319 -0.02692484 4.58329546 -0.04636124 6.875 -0.0625 C8.15117187 -0.07410156 9.42734375 -0.08570313 10.7421875 -0.09765625 C14 0 14 0 16 1 C16 5.29 16 9.58 16 14 C17.98 14 19.96 14 22 14 C22.33 12.68 22.66 11.36 23 10 C23 10.99 23 11.98 23 13 C29.93 13.495 29.93 13.495 37 14 C37.33 13.34 37.66 12.68 38 12 C38 12.99 38 13.98 38 15 C22.49 15 6.98 15 -9 15 C-9.33 13.02 -9.66 11.04 -10 9 C-9.34 9 -8.68 9 -8 9 C-8 10.65 -8 12.3 -8 14 C-3.38 14 1.24 14 6 14 C5.7215625 11.6178125 5.7215625 11.6178125 5.4375 9.1875 C5.05154528 5.88544294 4.93328048 4.20015856 6 1 C4.35 1 2.7 1 1 1 C1 1.66 1 2.32 1 3 C0.34 3 -0.32 3 -1 3 C-0.67 2.01 -0.34 1.02 0 0 Z M7 3 C7 4.32 7 5.64 7 7 C8.32 7 9.64 7 11 7 C11 7.66 11 8.32 11 9 C9.68 9 8.36 9 7 9 C7 10.32 7 11.64 7 13 C9.64 13 12.28 13 15 13 C15 9.37 15 5.74 15 2 C12.34223434 2 9.62576483 2.61807057 7 3 Z " fill="#2F8495" transform="translate(248,228)"/>
<path d="M0 0 C5.94 0 11.88 0 18 0 C18 0.66 18 1.32 18 2 C16.35 2 14.7 2 13 2 C13 6.29 13 10.58 13 15 C10.36 15 7.72 15 5 15 C5 10.71 5 6.42 5 2 C3.35 2 1.7 2 0 2 C0 1.34 0 0.68 0 0 Z " fill="#168EA5" transform="translate(274,254)"/>
<path d="M0 0 C1.7734375 1.52734375 1.7734375 1.52734375 3 3 C1.35 3 -0.3 3 -2 3 C-2 6.96 -2 10.92 -2 15 C-5.96359827 15.31087045 -8.38933056 15.32482417 -11.9375 13.4375 C-14 11 -14 11 -14.625 7.5 C-14 4 -14 4 -12.0625 1.5625 C-8.07319504 -0.47285967 -4.40849668 -0.91637291 0 0 Z M-5 2 C-6.23267348 3.00836062 -6.23267348 3.00836062 -6.09765625 5.06640625 C-6.08605469 5.89011719 -6.07445312 6.71382813 -6.0625 7.5625 C-6.05347656 8.38878906 -6.04445312 9.21507812 -6.03515625 10.06640625 C-6.02355469 10.70449219 -6.01195312 11.34257812 -6 12 C-5.01 12 -4.02 12 -3 12 C-3 9.03 -3 6.06 -3 3 C-3.66 2.67 -4.32 2.34 -5 2 Z " fill="#2491A6" transform="translate(222,254)"/>
<path d="M0 0 C1.65 0 3.3 0 5 0 C6 1 6 1 6.09765625 3.72265625 C6.08605469 4.82480469 6.07445312 5.92695313 6.0625 7.0625 C6.05347656 8.16722656 6.04445313 9.27195313 6.03515625 10.41015625 C6.02355469 11.26480469 6.01195312 12.11945313 6 13 C3.69 13 1.38 13 -1 13 C-0.67 8.71 -0.34 4.42 0 0 Z " fill="#0595AF" transform="translate(279,229)"/>
<path d="M0 0 C2.875 -0.125 2.875 -0.125 6 0 C6.66 0.66 7.32 1.32 8 2 C7.67 2.99 7.34 3.98 7 5 C7 4.34 7 3.68 7 3 C6.01 3 5.02 3 4 3 C3.34 4.32 2.68 5.64 2 7 C1.34 7 0.68 7 0 7 C0 7.66 0 8.32 0 9 C0.99 8.67 1.98 8.34 3 8 C3 8.99 3 9.98 3 11 C2.360625 11.103125 1.72125 11.20625 1.0625 11.3125 C0.0415625 11.6528125 0.0415625 11.6528125 -1 12 C-1.33 12.99 -1.66 13.98 -2 15 C-2.99 15 -3.98 15 -5 15 C-3.33333333 10 -1.66666667 5 0 0 Z " fill="#1089AC" transform="translate(216,228)"/>
<path d="M0 0 C5.94 0 11.88 0 18 0 C18 0.66 18 1.32 18 2 C15.36 2 12.72 2 10 2 C9.67 3.32 9.34 4.64 9 6 C9 4.35 9 2.7 9 1 C7.02 1 5.04 1 3 1 C3 1.99 3 2.98 3 4 C2.34 4 1.68 4 1 4 C1 7.3 1 10.6 1 14 C-1.34102859 15.17051429 -2.89352953 15.1992246 -5.5 15.25 C-6.69109375 15.28867187 -6.69109375 15.28867187 -7.90625 15.328125 C-8.5971875 15.21984375 -9.288125 15.1115625 -10 15 C-10.66 14.01 -11.32 13.02 -12 12 C-11.38511719 12.08378906 -10.77023438 12.16757812 -10.13671875 12.25390625 C-9.32847656 12.35574219 -8.52023438 12.45757812 -7.6875 12.5625 C-6.88699219 12.66691406 -6.08648437 12.77132813 -5.26171875 12.87890625 C-2.83182884 13.14755178 -2.83182884 13.14755178 0 12 C0 8.04 0 4.08 0 0 Z " fill="#318EA0" transform="translate(240,254)"/>
<path d="M0 0 C1.65 0 3.3 0 5 0 C5.14285714 8.57142857 5.14285714 8.57142857 4 12 C1.36 12 -1.28 12 -4 12 C-4.33 11.34 -4.66 10.68 -5 10 C-3.35 10 -1.7 10 0 10 C-0.185625 8.906875 -0.37125 7.81375 -0.5625 6.6875 C-1 3 -1 3 0 0 Z " fill="#0396B2" transform="translate(249,229)"/>
<path d="M0 0 C-1.14421668 2.80853185 -2.20379854 4.18341869 -4.5 6.25 C-7.73220026 9.80542029 -8.12918999 12.32929176 -9 17 C-9.66 16.01 -10.32 15.02 -11 14 C-11.66 15.32 -12.32 16.64 -13 18 C-12.65341895 11.53048701 -11.1194072 7.07187129 -7 2 C-4 0 -4 0 0 0 Z " fill="#6A65D1" transform="translate(163,234)"/>
<path d="M0 0 C1.32 0 2.64 0 4 0 C4.19573608 1.43640171 4.38127816 2.87419504 4.5625 4.3125 C4.66691406 5.11300781 4.77132812 5.91351563 4.87890625 6.73828125 C5 9 5 9 4 12 C2.35 12 0.7 12 -1 12 C-1.02687279 10.18757948 -1.04633715 8.37504767 -1.0625 6.5625 C-1.07410156 5.55316406 -1.08570313 4.54382813 -1.09765625 3.50390625 C-1 1 -1 1 0 0 Z " fill="#0496AF" transform="translate(231,229)"/>
<path d="M0 0 C1.17755859 0.02320313 1.17755859 0.02320313 2.37890625 0.046875 C4.4375 0.25 4.4375 0.25 6.4375 1.25 C6.4375 1.91 6.4375 2.57 6.4375 3.25 C4.1275 3.25 1.8175 3.25 -0.5625 3.25 C0.571875 3.70375 1.70625 4.1575 2.875 4.625 C6.4375 6.25 6.4375 6.25 7.4375 8.25 C3.96808454 7.79177532 0.76354951 7.35868317 -2.5625 6.25 C-2.5625 4.93 -2.5625 3.61 -2.5625 2.25 C-3.5525 2.25 -4.5425 2.25 -5.5625 2.25 C-5.2325 4.56 -4.9025 6.87 -4.5625 9.25 C-5.2225 9.25 -5.8825 9.25 -6.5625 9.25 C-7.25 6.4375 -7.25 6.4375 -7.5625 3.25 C-5.38863059 0.18811204 -3.64847272 -0.12021327 0 0 Z " fill="#2490A4" transform="translate(265.5625,253.75)"/>
<path d="M0 0 C0.66 0 1.32 0 2 0 C2.33 2.64 2.66 5.28 3 8 C4.65 8 6.3 8 8 8 C8.33 7.01 8.66 6.02 9 5 C9 5.99 9 6.98 9 8 C11.46800047 6.84826645 13.04783565 5.95216435 15 4 C14.6875 6.375 14.6875 6.375 14 9 C10.37133215 11.4191119 8.99587497 11.19419324 4.875 10.53515625 C3 10 3 10 1 8.3125 C-0.25320885 5.41445453 -0.2130417 3.12461161 0 0 Z " fill="#23839D" transform="translate(195,233)"/>
<path d="M0 0 C0.99 0.33 1.98 0.66 3 1 C3 2.98 3 4.96 3 7 C7.455 7.99 7.455 7.99 12 9 C12 9.99 12 10.98 12 12 C4.8 12.48 4.8 12.48 1.5 10.5 C-0.68405234 6.85991277 -0.28023018 4.20345267 0 0 Z " fill="#4F46D9" transform="translate(160,246)"/>
<path d="M0 0 C1.32 0 2.64 0 4 0 C4 0.99 4 1.98 4 3 C2.68 3 1.36 3 0 3 C0 4.32 0 5.64 0 7 C2.64 7 5.28 7 8 7 C8 7.66 8 8.32 8 9 C2.72 9 -2.56 9 -8 9 C-8 8.34 -8 7.68 -8 7 C-5.69 7 -3.38 7 -1 7 C-0.67 4.69 -0.34 2.38 0 0 Z " fill="#348A9D" transform="translate(250,260)"/>
<path d="M0 0 C0.33 1.32 0.66 2.64 1 4 C-1.55920313 6.55920313 -3.47517679 7.24016221 -7 7.3125 C-10.10984498 7.20226296 -12.35821908 6.76118728 -15 5 C-15 4.34 -15 3.68 -15 3 C-12.36 3.66 -9.72 4.32 -7 5 C-7 4.34 -7 3.68 -7 3 C-8.65 2.67 -10.3 2.34 -12 2 C-12 1.67 -12 1.34 -12 1 C-10.02 1 -8.04 1 -6 1 C-6 2.32 -6 3.64 -6 5 C-4.68 5 -3.36 5 -2 5 C-1.67 4.01 -1.34 3.02 -1 2 C-0.67 1.34 -0.34 0.68 0 0 Z " fill="#1F90A1" transform="translate(273,262)"/>
<path d="M0 0 C2.31243792 -0.02685412 4.6249627 -0.04632841 6.9375 -0.0625 C8.22527344 -0.07410156 9.51304687 -0.08570313 10.83984375 -0.09765625 C14 0 14 0 15 1 C15.07244053 3.01964199 15.08377188 5.04167124 15.0625 7.0625 C15.05347656 8.16722656 15.04445313 9.27195313 15.03515625 10.41015625 C15.02355469 11.26480469 15.01195312 12.11945313 15 13 C14.67 13 14.34 13 14 13 C14 9.7 14 6.4 14 3 C11.69 3 9.38 3 7 3 C6.67 3.99 6.34 4.98 6 6 C6 4.68 6 3.36 6 2 C3.03 1.505 3.03 1.505 0 1 C0 0.67 0 0.34 0 0 Z " fill="#177F92" transform="translate(264,228)"/>
<path d="M0 0 C1.32 0 2.64 0 4 0 C4.33 3.3 4.66 6.6 5 10 C3.68 9.67 2.36 9.34 1 9 C0.67 8.01 0.34 7.02 0 6 C-0.66 5.67 -1.32 5.34 -2 5 C-1.125 1.125 -1.125 1.125 0 0 Z " fill="#0495B4" transform="translate(211,257)"/>
<path d="M0 0 C1.65 0 3.3 0 5 0 C5.3125 2.6875 5.3125 2.6875 5 6 C2.5 8.875 2.5 8.875 0 11 C-1.26026798 8.47946405 -0.91874445 7.1457902 -0.5625 4.375 C-0.46066406 3.55773437 -0.35882813 2.74046875 -0.25390625 1.8984375 C-0.17011719 1.27195312 -0.08632812 0.64546875 0 0 Z " fill="#0694AF" transform="translate(220,257)"/>
<path d="M0 0 C1.5625 1.625 1.5625 1.625 3 4 C2.6875 7.25 2.6875 7.25 2 10 C0.68 10 -0.64 10 -2 10 C-2.1953125 3.9453125 -2.1953125 3.9453125 -2 2 C-1.34 1.34 -0.68 0.68 0 0 Z " fill="#0296B1" transform="translate(267,231)"/>
<path d="M0 0 C1.258125 -0.04125 2.51625 -0.0825 3.8125 -0.125 C4.52019531 -0.14820313 5.22789062 -0.17140625 5.95703125 -0.1953125 C8 0 8 0 11 2 C9.02 2 7.04 2 5 2 C4.67 4.31 4.34 6.62 4 9 C3.01 9 2.02 9 1 9 C-0.4783226 6.04335481 -0.06032783 3.25770263 0 0 Z M1 3 C1.33 4.32 1.66 5.64 2 7 C2.66 6.67 3.32 6.34 4 6 C4 5.01 4 4.02 4 3 C3.01 3 2.02 3 1 3 Z " fill="#1C8AA2" transform="translate(235,228)"/>
<path d="M0 0 C0.33 0 0.66 0 1 0 C1.99 3.96 2.98 7.92 4 12 C3.34 12 2.68 12 2 12 C1.67 12.66 1.34 13.32 1 14 C-2.2 6.86153846 -2.2 6.86153846 -1.1875 2.5 C-0.795625 1.675 -0.40375 0.85 0 0 Z " fill="#3F3BD3" transform="translate(152,246)"/>
<path d="M0 0 C0.99 0.33 1.98 0.66 3 1 C3.33 1.99 3.66 2.98 4 4 C5.98 4 7.96 4 10 4 C10.33 4.99 10.66 5.98 11 7 C6.75519536 7.33292585 4.64457375 7.43885872 1.0625 5 C0.381875 4.34 -0.29875 3.68 -1 3 C-0.67 2.01 -0.34 1.02 0 0 Z " fill="#1C899F" transform="translate(209,262)"/>
<path d="M0 0 C0.33 0 0.66 0 1 0 C1.37254569 3.35291118 1.31050198 4.6038423 -0.8125 7.3125 C-3 9 -3 9 -6 9 C-5.38722388 6.03824877 -4.74627478 4.61941217 -3 2 C-2.01 2 -1.02 2 0 2 C0 1.34 0 0.68 0 0 Z " fill="#3831D5" transform="translate(183,255)"/>
<path d="M0 0 C2.0625 0.4375 2.0625 0.4375 4 1 C4 2.98 4 4.96 4 7 C2.68 7 1.36 7 0 7 C-0.38133299 5.0085944 -0.71325582 3.00720923 -1 1 C-0.67 0.67 -0.34 0.34 0 0 Z " fill="#0296B3" transform="translate(198,234)"/>
<path d="M0 0 C-0.33 0.99 -0.66 1.98 -1 3 C-4.3 3 -7.6 3 -11 3 C-11.33 2.01 -11.66 1.02 -12 0 C-7.91556885 -1.53166168 -4.20544343 -0.63081652 0 0 Z " fill="#434CB1" transform="translate(174,233)"/>
<path d="M0 0 C0 0.66 0 1.32 0 2 C-1.32 2 -2.64 2 -4 2 C-3.67 2.99 -3.34 3.98 -3 5 C-3.66 5.66 -4.32 6.32 -5 7 C-4.67801034 10.09926819 -4.67801034 10.09926819 -4 13 C-4.99 12.67 -5.98 12.34 -7 12 C-7 9 -7 6 -7 3 C-2.77777778 0 -2.77777778 0 0 0 Z " fill="#5550C3" transform="translate(169,241)"/>
<path d="M0 0 C1.19496094 0.14888672 1.19496094 0.14888672 2.4140625 0.30078125 C4.375 0.6875 4.375 0.6875 5.375 1.6875 C5.41563832 3.35367115 5.417721 5.02138095 5.375 6.6875 C4.941875 6.213125 4.50875 5.73875 4.0625 5.25 C2.35190387 3.45063043 2.35190387 3.45063043 -0.625 2.6875 C-0.625 2.0275 -0.625 1.3675 -0.625 0.6875 C-2.935 1.0175 -5.245 1.3475 -7.625 1.6875 C-4.3024775 -0.527515 -3.74768409 -0.50660876 0 0 Z " fill="#2F8396" transform="translate(204.625,228.3125)"/>
<path d="M0 0 C4.29 0 8.58 0 13 0 C13 0.66 13 1.32 13 2 C11.824375 2.1546875 11.824375 2.1546875 10.625 2.3125 C7.66954819 2.77595022 7.66954819 2.77595022 6 6 C6 4.35 6 2.7 6 1 C4.35 1 2.7 1 1 1 C1 1.66 1 2.32 1 3 C0.34 3 -0.32 3 -1 3 C-0.67 2.01 -0.34 1.02 0 0 Z " fill="#1E8399" transform="translate(248,228)"/>
<path d="M0 0 C0.33 0.66 0.66 1.32 1 2 C1.66 2.33 2.32 2.66 3 3 C2.34 5.64 1.68 8.28 1 11 C0.34 10.01 -0.32 9.02 -1 8 C-1.66 9.32 -2.32 10.64 -3 12 C-2.14285714 3.42857143 -2.14285714 3.42857143 0 0 Z " fill="#5752CA" transform="translate(153,240)"/>
<path d="M0 0 C1.32 0.33 2.64 0.66 4 1 C4 3.31 4 5.62 4 8 C2.02 8.33 0.04 8.66 -2 9 C-2.33 7.68 -2.66 6.36 -3 5 C-1.68 5.33 -0.36 5.66 1 6 C0.67 4.02 0.34 2.04 0 0 Z " fill="#0C8EA3" transform="translate(245,231)"/>
<path d="M0 0 C1.32 0 2.64 0 4 0 C4 0.66 4 1.32 4 2 C4.66 2 5.32 2 6 2 C6 2.99 6 3.98 6 5 C5.34 5 4.68 5 4 5 C4.33 6.32 4.66 7.64 5 9 C1.9083091 6.47043472 1.09068668 3.77545388 0 0 Z " fill="#0398B0" transform="translate(289,229)"/>
<path d="M0 0 C0.66 0 1.32 0 2 0 C2.33 2.64 2.66 5.28 3 8 C4.65 8 6.3 8 8 8 C8 6.35 8 4.7 8 3 C8.33 3 8.66 3 9 3 C9 4.98 9 6.96 9 9 C6.69 9 4.38 9 2 9 C1.87625 8.195625 1.7525 7.39125 1.625 6.5625 C1.315625 5.2940625 1.315625 5.2940625 1 4 C0.34 3.67 -0.32 3.34 -1 3 C-0.67 2.01 -0.34 1.02 0 0 Z " fill="#268B9B" transform="translate(287,234)"/>
<path d="M0 0 C5.94 1.485 5.94 1.485 12 3 C12 3.33 12 3.66 12 4 C3.42857143 4.28571429 3.42857143 4.28571429 0 2 C0 1.34 0 0.68 0 0 Z " fill="#3A8898" transform="translate(258,265)"/>
<path d="M0 0 C2 1 2 1 3.125 3.375 C4 6 4 6 4 9 C2.68 8.67 1.36 8.34 0 8 C0.33 6.68 0.66 5.36 1 4 C0.34 3.67 -0.32 3.34 -1 3 C-0.67 2.01 -0.34 1.02 0 0 Z " fill="#1395A7" transform="translate(224,233)"/>
<path d="M0 0 C1.45823212 -0.0270043 2.91660675 -0.04639787 4.375 -0.0625 C5.18710937 -0.07410156 5.99921875 -0.08570313 6.8359375 -0.09765625 C9 0 9 0 11 1 C11 1.66 11 2.32 11 3 C8.36 3 5.72 3 3 3 C3 2.34 3 1.68 3 1 C2.01 0.67 1.02 0.34 0 0 Z " fill="#388F9C" transform="translate(261,254)"/>
<path d="M0 0 C2.475 0.495 2.475 0.495 5 1 C5 2.32 5 3.64 5 5 C4.01 5 3.02 5 2 5 C1.34 3.35 0.68 1.7 0 0 Z " fill="#3A3CD2" transform="translate(178,238)"/>
<path d="M0 0 C0.33 0.66 0.66 1.32 1 2 C2.65 2 4.3 2 6 2 C5.360625 2.268125 4.72125 2.53625 4.0625 2.8125 C1.66868314 3.88667752 1.66868314 3.88667752 1 7 C0.01 7 -0.98 7 -2 7 C-1.34 4.69 -0.68 2.38 0 0 Z " fill="#338794" transform="translate(213,236)"/>
<path d="M0 0 C0.66 0.33 1.32 0.66 2 1 C0.25 3.9375 0.25 3.9375 -2 7 C-3.32 7.33 -4.64 7.66 -6 8 C-4.02 5.36 -2.04 2.72 0 0 Z " fill="#0000FF" transform="translate(185,258)"/>
<path d="M0 0 C0.12375 0.639375 0.2475 1.27875 0.375 1.9375 C0.58125 2.618125 0.7875 3.29875 1 4 C1.66 4.33 2.32 4.66 3 5 C2.34 5 1.68 5 1 5 C1 5.66 1 6.32 1 7 C1.99 6.67 2.98 6.34 4 6 C4 6.66 4 7.32 4 8 C2.35 8 0.7 8 -1 8 C-0.67 5.36 -0.34 2.72 0 0 Z " fill="#2597AD" transform="translate(215,230)"/>
<path d="M0 0 C0.12375 0.639375 0.2475 1.27875 0.375 1.9375 C0.58125 2.618125 0.7875 3.29875 1 4 C1.66 4.33 2.32 4.66 3 5 C3.33 5.99 3.66 6.98 4 8 C2.68 8 1.36 8 0 8 C0 5.36 0 2.72 0 0 Z " fill="#1299B8" transform="translate(228,258)"/>
<path d="M0 0 C0.99 0.495 0.99 0.495 2 1 C2.40729228 3.32156597 2.74438677 5.6568787 3 8 C2.01 8 1.02 8 0 8 C0 5.36 0 2.72 0 0 Z " fill="#0C93A7" transform="translate(241,258)"/>
<path d="M0 0 C0.99 0 1.98 0 3 0 C3 0.99 3 1.98 3 3 C2.34 3 1.68 3 1 3 C1 5.64 1 8.28 1 11 C0.67 11 0.34 11 0 11 C0 7.37 0 3.74 0 0 Z " fill="#3AA1B4" transform="translate(240,255)"/>
<path d="M0 0 C1.32 0 2.64 0 4 0 C4 1.32 4 2.64 4 4 C2.68 4 1.36 4 0 4 C0 2.68 0 1.36 0 0 Z " fill="#3F45C3" transform="translate(174,240)"/>
<path d="" fill="#0000FF" transform="translate(0,0)"/>
</svg>
