<?xml version="1.0" encoding="UTF-8"?>
<svg xmlns="http://www.w3.org/2000/svg" xmlns:xlink="http://www.w3.org/1999/xlink" width="500px" height="200px" viewBox="0 0 500 200" version="1.1">
<g id="surface1">
<path style=" stroke:none;fill-rule:nonzero;fill:rgb(9.019608%,54.509804%,63.137255%);fill-opacity:1;" d="M 216 91.199219 C 218.75 91.050781 218.75 91.050781 222 91.199219 C 224.820312 92.546875 226.542969 93.949219 228 95.601562 C 228.089844 95.175781 228.089844 95.175781 228.183594 94.738281 C 228.265625 94.371094 228.351562 94.003906 228.4375 93.625 C 228.519531 93.257812 228.601562 92.890625 228.683594 92.515625 C 229 91.601562 229 91.601562 230 91.199219 C 232.101562 91.160156 234.207031 91.148438 236.3125 91.148438 C 237.464844 91.148438 238.613281 91.148438 239.800781 91.148438 C 242.425781 91.191406 244.492188 91.335938 247 91.601562 C 247.328125 91.46875 247.660156 91.335938 248 91.199219 C 249.390625 91.15625 250.785156 91.136719 252.179688 91.128906 C 253.070312 91.125 253.957031 91.117188 254.871094 91.113281 C 255.839844 91.109375 256.804688 91.109375 257.800781 91.105469 C 258.789062 91.101562 259.777344 91.097656 260.792969 91.09375 C 262.890625 91.089844 264.984375 91.085938 267.082031 91.082031 C 270.289062 91.074219 273.496094 91.058594 276.703125 91.039062 C 278.734375 91.035156 280.765625 91.03125 282.800781 91.03125 C 284.242188 91.019531 284.242188 91.019531 285.710938 91.007812 C 292.355469 91.015625 292.355469 91.015625 295.652344 91.953125 C 297 92.800781 297 92.800781 296.75 93.75 C 296.378906 94.269531 296.378906 94.269531 296 94.800781 C 295.960938 95.601562 295.953125 96.398438 296 97.199219 C 293.691406 97.199219 291.378906 97.199219 289 97.199219 C 288.875 96.878906 288.753906 96.554688 288.625 96.226562 C 288.316406 95.71875 288.316406 95.71875 288 95.199219 C 287.011719 95.003906 287.011719 95.003906 286 94.800781 C 286 95.59375 286 96.382812 286 97.199219 C 270.488281 97.199219 254.980469 97.199219 239 97.199219 C 238.671875 96.539062 238.339844 95.878906 238 95.199219 C 237.339844 95.066406 236.679688 94.9375 236 94.800781 C 236 95.59375 236 96.382812 236 97.199219 C 231.050781 97.199219 226.101562 97.199219 221 97.199219 C 220.339844 96.671875 219.679688 96.144531 219 95.601562 C 217.015625 95.707031 217.015625 95.707031 215 96 C 214.671875 96.394531 214.339844 96.792969 214 97.199219 C 213.011719 97.199219 212.019531 97.199219 211 97.199219 C 212.667969 95.199219 214.332031 93.199219 216 91.199219 Z M 236 92.398438 C 236.328125 92.929688 236.660156 93.457031 237 94 C 237.660156 93.867188 238.320312 93.734375 239 93.601562 C 239 93.203125 239 92.808594 239 92.398438 C 238.011719 92.398438 237.019531 92.398438 236 92.398438 Z M 255 92.398438 C 255 92.929688 255 93.457031 255 94 C 256.320312 94 257.640625 94 259 94 C 259 94.265625 259 94.527344 259 94.800781 C 257.679688 94.800781 256.359375 94.800781 255 94.800781 C 255 95.328125 255 95.855469 255 96.398438 C 257.640625 96.398438 260.28125 96.398438 263 96.398438 C 263 94.949219 263 93.496094 263 92 C 260.34375 92 257.625 92.246094 255 92.398438 Z M 271 92.398438 C 271 92.929688 271 93.457031 271 94 C 271.988281 94 272.980469 94 274 94 C 274 94.265625 274 94.527344 274 94.800781 C 273.011719 94.800781 272.019531 94.800781 271 94.800781 C 271 95.328125 271 95.855469 271 96.398438 C 273.308594 96.398438 275.621094 96.398438 278 96.398438 C 278 95.078125 278 93.761719 278 92.398438 C 275.691406 92.398438 273.378906 92.398438 271 92.398438 Z M 286 92.398438 C 286.328125 92.929688 286.660156 93.457031 287 94 C 287.660156 93.867188 288.320312 93.734375 289 93.601562 C 288.671875 93.203125 288.339844 92.808594 288 92.398438 C 287.339844 92.398438 286.679688 92.398438 286 92.398438 Z M 216 94 C 217 94.800781 217 94.800781 217 94.800781 Z M 246 94 C 246 95.199219 246 95.199219 246 95.199219 Z M 246 94 "/>
<path style=" stroke:none;fill-rule:nonzero;fill:rgb(5.882353%,57.254902%,66.666667%);fill-opacity:1;" d="M 222 101.601562 C 225.0625 102.398438 225.0625 102.398438 227 103.199219 C 227.328125 102.671875 227.660156 102.144531 228 101.601562 C 230.640625 101.601562 233.28125 101.601562 236 101.601562 C 236 103.183594 236 104.769531 236 106.398438 C 237.320312 106.398438 238.640625 106.398438 240 106.398438 C 240 104.816406 240 103.230469 240 101.601562 C 245.941406 101.601562 251.878906 101.601562 258 101.601562 C 258 101.863281 258 102.128906 258 102.398438 C 255.359375 102.398438 252.71875 102.398438 250 102.398438 C 250 102.929688 250 103.457031 250 104 C 251.320312 104 252.640625 104 254 104 C 254 104.394531 254 104.792969 254 105.199219 C 252.679688 105.199219 251.359375 105.199219 250 105.199219 C 250 105.726562 250 106.257812 250 106.800781 C 252.640625 106.800781 255.28125 106.800781 258 106.800781 C 258 107.0625 258 107.328125 258 107.601562 C 251.667969 107.601562 245.332031 107.601562 239 107.601562 C 238.289062 107.617188 237.578125 107.636719 236.84375 107.65625 C 234.507812 107.699219 232.324219 107.71875 230 107.601562 C 227.9375 106.800781 227.9375 106.800781 227 106 C 227 106.660156 227 107.320312 227 108 C 224.769531 107.976562 222.539062 107.941406 220.3125 107.898438 C 219.070312 107.882812 217.828125 107.863281 216.550781 107.84375 C 212.527344 107.566406 210.804688 107.171875 208 106 C 207.375 104.601562 207.375 104.601562 208 103.199219 C 211.714844 101.328125 216.40625 101.179688 222 101.601562 Z M 217 102.398438 C 215.765625 102.804688 215.765625 102.804688 215.902344 103.625 C 215.914062 103.957031 215.925781 104.285156 215.9375 104.625 C 215.945312 104.957031 215.957031 105.285156 215.964844 105.625 C 215.976562 105.882812 215.988281 106.136719 216 106.398438 C 216.988281 106.398438 217.980469 106.398438 219 106.398438 C 219 105.210938 219 104.023438 219 102.800781 C 218.339844 102.667969 217.679688 102.535156 217 102.398438 Z M 217 102.398438 "/>
<path style=" stroke:none;fill-rule:nonzero;fill:rgb(25.098039%,25.882353%,73.333333%);fill-opacity:1;" d="M 180 94.398438 C 183.960938 96.027344 185.871094 97.546875 186.105469 99.832031 C 185.890625 102.148438 185.046875 103.785156 180.867188 105.449219 C 176.371094 106.773438 171.441406 107.34375 165.875 107.175781 C 160.425781 106.648438 156.730469 106.152344 153.417969 104.332031 C 150.640625 102.359375 149.226562 100.71875 150.292969 98.46875 C 152.015625 96.351562 154.328125 94.824219 159.0625 93.625 C 160.03125 93.484375 161 93.34375 162 93.199219 C 162.617188 93.101562 163.238281 93.003906 163.875 92.898438 C 169.785156 92.621094 175.019531 93.132812 180 94.398438 Z M 156 96.398438 C 154.101562 97.625 153.726562 98.566406 153.75 100 C 153.746094 100.339844 153.738281 100.675781 153.734375 101.023438 C 154.097656 102.363281 155.089844 103.207031 157.375 104.195312 C 161.695312 105.539062 165.164062 105.894531 170.636719 105.765625 C 175.050781 105.457031 177.664062 104.734375 180.285156 103.292969 C 182.664062 101.65625 183.648438 100.261719 182.742188 98.382812 C 180.976562 96.523438 177.726562 95.1875 173.4375 94.226562 C 166.238281 93.558594 161.355469 94.429688 156 96.398438 Z M 156 96.398438 "/>
<path style=" stroke:none;fill-rule:nonzero;fill:rgb(1.176471%,58.823529%,69.411765%);fill-opacity:1;" d="M 240 101.601562 C 245.941406 101.601562 251.878906 101.601562 258 101.601562 C 258 101.863281 258 102.128906 258 102.398438 C 255.359375 102.398438 252.71875 102.398438 250 102.398438 C 250 102.929688 250 103.457031 250 104 C 251.320312 104 252.640625 104 254 104 C 254 104.394531 254 104.792969 254 105.199219 C 252.679688 105.199219 251.359375 105.199219 250 105.199219 C 250 105.726562 250 106.257812 250 106.800781 C 252.640625 106.800781 255.28125 106.800781 258 106.800781 C 258 107.0625 258 107.328125 258 107.601562 C 251.667969 107.601562 245.332031 107.601562 239 107.601562 C 237.914062 107.621094 237.914062 107.621094 236.808594 107.640625 C 236.027344 107.652344 235.242188 107.664062 234.4375 107.675781 C 233.652344 107.6875 232.867188 107.703125 232.058594 107.71875 C 231.378906 107.679688 230.699219 107.640625 230 107.601562 C 229.339844 107.203125 228.679688 106.808594 228 106.398438 C 228.613281 106.433594 229.230469 106.46875 229.863281 106.5 C 230.671875 106.542969 231.480469 106.582031 232.3125 106.625 C 233.113281 106.667969 233.914062 106.707031 234.738281 106.75 C 237.167969 106.859375 237.167969 106.859375 240 106.398438 C 240 104.816406 240 103.230469 240 101.601562 Z M 240 101.601562 "/>
<path style=" stroke:none;fill-rule:nonzero;fill:rgb(3.137255%,57.647059%,68.235294%);fill-opacity:1;" d="M 239 91.601562 C 243.949219 91.996094 243.949219 91.996094 249 92.398438 C 249 92.136719 249 91.871094 249 91.601562 C 250.648438 91.601562 252.300781 91.601562 254 91.601562 C 254 93.316406 254 95.03125 254 96.800781 C 249.378906 96.800781 244.761719 96.800781 240 96.800781 C 239.296875 95.046875 238.890625 93.375 239 91.601562 Z M 246 94 C 246 95.199219 246 95.199219 246 95.199219 Z M 246 94 "/>
<path style=" stroke:none;fill-rule:nonzero;fill:rgb(1.568627%,58.431373%,69.803922%);fill-opacity:1;" d="M 265.5625 101.5 C 266.738281 101.507812 266.738281 101.507812 267.941406 101.519531 C 270 101.601562 270 101.601562 272 102 C 272 102.265625 272 102.527344 272 102.800781 C 269.691406 102.800781 267.378906 102.800781 265 102.800781 C 266.113281 102.980469 267.226562 103.164062 268.375 103.351562 C 272 104 272 104 274 104.800781 C 273.8125 105.800781 273.8125 105.800781 273 106.800781 C 269.296875 107.789062 266.292969 107.78125 262 107.601562 C 259.5 107.199219 259.5 107.199219 258 106.800781 C 258 106.535156 258 106.273438 258 106 C 260.640625 106.265625 263.28125 106.527344 266 106.800781 C 266 106.535156 266 106.273438 266 106 C 263.691406 105.734375 261.378906 105.472656 259 105.199219 C 258.3125 104.074219 258.3125 104.074219 258 102.800781 C 260.175781 101.574219 261.914062 101.453125 265.5625 101.5 Z M 265.5625 101.5 "/>
<path style=" stroke:none;fill-rule:nonzero;fill:rgb(19.607843%,18.039216%,81.176471%);fill-opacity:1;" d="M 152 98.398438 C 152.328125 98.398438 152.660156 98.398438 153 98.398438 C 153.171875 98.765625 153.339844 99.132812 153.515625 99.507812 C 153.757812 99.984375 154 100.460938 154.25 100.949219 C 154.480469 101.421875 154.714844 101.898438 154.953125 102.382812 C 155.679688 103.625 155.679688 103.625 157.921875 104.117188 C 158.609375 104.210938 159.292969 104.304688 160 104.398438 C 160.988281 104.664062 161.980469 104.929688 163 105.199219 C 167.777344 105.484375 172.417969 105.527344 176.5625 104.449219 C 179.039062 103.695312 179.039062 103.695312 180 102.800781 C 180.988281 102.800781 181.980469 102.800781 183 102.800781 C 183.328125 102.535156 183.660156 102.273438 184 102 C 184.4375 102.851562 184.4375 102.851562 184 104 C 180.242188 105.828125 175.855469 106.832031 170 107.199219 C 164.46875 107.230469 159.15625 106.734375 155 105.199219 C 152.347656 103.730469 149.84375 102.183594 150.140625 100.316406 C 150.6875 99.550781 150.6875 99.550781 152 98.398438 Z M 152 98.398438 "/>
<path style=" stroke:none;fill-rule:nonzero;fill:rgb(3.529412%,57.254902%,66.666667%);fill-opacity:1;" d="M 204.6875 91.324219 C 205.867188 91.382812 205.867188 91.382812 207.074219 91.445312 C 209 91.601562 209 91.601562 210 92 C 210.039062 92.667969 210.042969 93.332031 210 94 C 209.566406 93.808594 209.132812 93.621094 208.6875 93.425781 C 206.976562 92.707031 206.976562 92.707031 204 92.398438 C 204 93.71875 204 95.039062 204 96.398438 C 207.894531 95.726562 207.894531 95.726562 210 94.800781 C 209.6875 95.75 209.6875 95.75 209 96.800781 C 205.375 97.765625 203.996094 97.683594 199.878906 97.410156 C 198 97.199219 198 97.199219 195.9375 96.601562 C 194.515625 95.082031 194.648438 93.53125 196 92 C 198.9375 91.140625 201.160156 91.132812 204.6875 91.324219 Z M 204.6875 91.324219 "/>
<path style=" stroke:none;fill-rule:nonzero;fill:rgb(1.568627%,58.431373%,69.411765%);fill-opacity:1;" d="M 216 91.199219 C 218.75 91.050781 218.75 91.050781 222 91.199219 C 225.453125 92.851562 228 94.625 228 96.800781 C 222.375 96.898438 222.375 96.898438 219 96 C 217.679688 96 216.359375 96 215 96 C 214.671875 96.394531 214.339844 96.792969 214 97.199219 C 213.011719 97.199219 212.019531 97.199219 211 97.199219 C 212.667969 95.199219 214.332031 93.199219 216 91.199219 Z M 216 94 C 217 94.800781 217 94.800781 217 94.800781 Z M 216 94 "/>
<path style=" stroke:none;fill-rule:nonzero;fill:rgb(29.019608%,28.627451%,79.215686%);fill-opacity:1;" d="M 173 97.199219 C 175.28125 97.859375 175.898438 98.289062 176.875 99.351562 C 177.039062 100.71875 175.992188 101.308594 174 102.398438 C 172 103.199219 172 103.199219 168.125 103.351562 C 165.191406 103.3125 164.085938 103.222656 161.5 102.601562 C 159.390625 101.195312 159.171875 100 160 98.398438 C 163.898438 96.300781 167.1875 96.230469 173 97.199219 Z M 164.1875 98.476562 C 162.738281 99.199219 162.738281 99.199219 163.1875 100.226562 C 163.847656 101.257812 163.847656 101.257812 166 102 C 169.296875 101.867188 170.621094 101.75 173 100.800781 C 172.671875 99.480469 172.378906 98.949219 170 98 C 166.195312 97.855469 166.195312 97.855469 164.1875 98.476562 Z M 164.1875 98.476562 "/>
<path style=" stroke:none;fill-rule:nonzero;fill:rgb(18.431373%,51.764706%,58.431373%);fill-opacity:1;" d="M 248 91.199219 C 250.292969 91.1875 252.582031 91.179688 254.875 91.175781 C 256.152344 91.171875 257.425781 91.164062 258.742188 91.160156 C 262 91.199219 262 91.199219 264 91.601562 C 264 93.316406 264 95.03125 264 96.800781 C 265.980469 96.800781 267.960938 96.800781 270 96.800781 C 270.328125 96.273438 270.660156 95.742188 271 95.199219 C 271 95.597656 271 95.992188 271 96.398438 C 277.929688 96.597656 277.929688 96.597656 285 96.800781 C 285.328125 96.535156 285.660156 96.273438 286 96 C 286 96.394531 286 96.792969 286 97.199219 C 270.488281 97.199219 254.980469 97.199219 239 97.199219 C 238.671875 96.40625 238.339844 95.617188 238 94.800781 C 238.660156 94.800781 239.320312 94.800781 240 94.800781 C 240 95.460938 240 96.121094 240 96.800781 C 244.621094 96.800781 249.238281 96.800781 254 96.800781 C 253.722656 95.847656 253.722656 95.847656 253.4375 94.875 C 253.050781 93.554688 252.933594 92.878906 254 91.601562 C 252.351562 91.601562 250.699219 91.601562 249 91.601562 C 249 91.863281 249 92.128906 249 92.398438 C 248.339844 92.398438 247.679688 92.398438 247 92.398438 C 247.328125 92.003906 247.660156 91.609375 248 91.199219 Z M 255 92.398438 C 255 92.929688 255 93.457031 255 94 C 256.320312 94 257.640625 94 259 94 C 259 94.265625 259 94.527344 259 94.800781 C 257.679688 94.800781 256.359375 94.800781 255 94.800781 C 255 95.328125 255 95.855469 255 96.398438 C 257.640625 96.398438 260.28125 96.398438 263 96.398438 C 263 94.949219 263 93.496094 263 92 C 260.34375 92 257.625 92.246094 255 92.398438 Z M 255 92.398438 "/>
<path style=" stroke:none;fill-rule:nonzero;fill:rgb(8.627451%,55.686275%,64.705882%);fill-opacity:1;" d="M 274 101.601562 C 279.941406 101.601562 285.878906 101.601562 292 101.601562 C 292 101.863281 292 102.128906 292 102.398438 C 290.351562 102.398438 288.699219 102.398438 287 102.398438 C 287 104.117188 287 105.832031 287 107.601562 C 284.359375 107.601562 281.71875 107.601562 279 107.601562 C 279 105.882812 279 104.167969 279 102.398438 C 277.351562 102.398438 275.699219 102.398438 274 102.398438 C 274 102.136719 274 101.871094 274 101.601562 Z M 274 101.601562 "/>
<path style=" stroke:none;fill-rule:nonzero;fill:rgb(14.117647%,56.862745%,65.098039%);fill-opacity:1;" d="M 222 101.601562 C 223.773438 102.210938 223.773438 102.210938 225 102.800781 C 223.351562 102.800781 221.699219 102.800781 220 102.800781 C 220 104.382812 220 105.96875 220 107.601562 C 216.035156 107.722656 213.609375 107.730469 210.0625 106.976562 C 208 106 208 106 207.375 104.601562 C 208 103.199219 208 103.199219 209.9375 102.226562 C 213.925781 101.410156 217.589844 101.234375 222 101.601562 Z M 217 102.398438 C 215.765625 102.804688 215.765625 102.804688 215.902344 103.625 C 215.914062 103.957031 215.925781 104.285156 215.9375 104.625 C 215.945312 104.957031 215.957031 105.285156 215.964844 105.625 C 215.976562 105.882812 215.988281 106.136719 216 106.398438 C 216.988281 106.398438 217.980469 106.398438 219 106.398438 C 219 105.210938 219 104.023438 219 102.800781 C 218.339844 102.667969 217.679688 102.535156 217 102.398438 Z M 217 102.398438 "/>
<path style=" stroke:none;fill-rule:nonzero;fill:rgb(1.960784%,58.431373%,68.627451%);fill-opacity:1;" d="M 279 91.601562 C 280.648438 91.601562 282.300781 91.601562 284 91.601562 C 285 92 285 92 285.097656 93.089844 C 285.085938 93.53125 285.074219 93.972656 285.0625 94.425781 C 285.054688 94.867188 285.042969 95.308594 285.035156 95.765625 C 285.023438 96.105469 285.011719 96.449219 285 96.800781 C 282.691406 96.800781 280.378906 96.800781 278 96.800781 C 278.328125 95.085938 278.660156 93.367188 279 91.601562 Z M 279 91.601562 "/>
<path style=" stroke:none;fill-rule:nonzero;fill:rgb(6.27451%,53.72549%,67.45098%);fill-opacity:1;" d="M 216 91.199219 C 218.875 91.148438 218.875 91.148438 222 91.199219 C 222.660156 91.464844 223.320312 91.726562 224 92 C 223.671875 92.394531 223.339844 92.792969 223 93.199219 C 223 92.9375 223 92.671875 223 92.398438 C 222.011719 92.398438 221.019531 92.398438 220 92.398438 C 219.339844 92.929688 218.679688 93.457031 218 94 C 217.339844 94 216.679688 94 216 94 C 216 94.265625 216 94.527344 216 94.800781 C 216.988281 94.667969 217.980469 94.535156 219 94.398438 C 219 94.796875 219 95.191406 219 95.601562 C 218.359375 95.640625 217.722656 95.683594 217.0625 95.726562 C 216.042969 95.859375 216.042969 95.859375 215 96 C 214.671875 96.394531 214.339844 96.792969 214 97.199219 C 213.011719 97.199219 212.019531 97.199219 211 97.199219 C 212.667969 95.199219 214.332031 93.199219 216 91.199219 Z M 216 91.199219 "/>
<path style=" stroke:none;fill-rule:nonzero;fill:rgb(19.215686%,55.686275%,62.745098%);fill-opacity:1;" d="M 240 101.601562 C 245.941406 101.601562 251.878906 101.601562 258 101.601562 C 258 101.863281 258 102.128906 258 102.398438 C 255.359375 102.398438 252.71875 102.398438 250 102.398438 C 249.671875 102.929688 249.339844 103.457031 249 104 C 249 103.339844 249 102.679688 249 102 C 247.019531 102 245.039062 102 243 102 C 243 102.394531 243 102.792969 243 103.199219 C 242.339844 103.199219 241.679688 103.199219 241 103.199219 C 241 104.519531 241 105.839844 241 107.199219 C 238.660156 107.667969 237.105469 107.679688 234.5 107.699219 C 233.308594 107.714844 233.308594 107.714844 232.09375 107.730469 C 231.402344 107.6875 230.710938 107.644531 230 107.601562 C 229.339844 107.203125 228.679688 106.808594 228 106.398438 C 228.613281 106.433594 229.230469 106.46875 229.863281 106.5 C 230.671875 106.542969 231.480469 106.582031 232.3125 106.625 C 233.113281 106.667969 233.914062 106.707031 234.738281 106.75 C 237.167969 106.859375 237.167969 106.859375 240 106.398438 C 240 104.816406 240 103.230469 240 101.601562 Z M 240 101.601562 "/>
<path style=" stroke:none;fill-rule:nonzero;fill:rgb(1.176471%,58.823529%,69.803922%);fill-opacity:1;" d="M 249 91.601562 C 250.648438 91.601562 252.300781 91.601562 254 91.601562 C 254.144531 95.027344 254.144531 95.027344 253 96.398438 C 250.359375 96.398438 247.71875 96.398438 245 96.398438 C 244.671875 96.136719 244.339844 95.871094 244 95.601562 C 245.648438 95.601562 247.300781 95.601562 249 95.601562 C 248.8125 95.164062 248.628906 94.726562 248.4375 94.273438 C 248 92.800781 248 92.800781 249 91.601562 Z M 249 91.601562 "/>
<path style=" stroke:none;fill-rule:nonzero;fill:rgb(41.568627%,39.607843%,81.960784%);fill-opacity:1;" d="M 163 93.601562 C 161.855469 94.722656 160.796875 95.273438 158.5 96.101562 C 155.269531 97.523438 154.871094 98.53125 154 100.398438 C 153.339844 100.003906 152.679688 99.609375 152 99.199219 C 151.339844 99.726562 150.679688 100.257812 150 100.800781 C 150.347656 98.210938 151.878906 96.429688 156 94.398438 C 159 93.601562 159 93.601562 163 93.601562 Z M 163 93.601562 "/>
<path style=" stroke:none;fill-rule:nonzero;fill:rgb(1.568627%,58.823529%,68.627451%);fill-opacity:1;" d="M 231 91.601562 C 232.320312 91.601562 233.640625 91.601562 235 91.601562 C 235.195312 92.175781 235.382812 92.75 235.5625 93.324219 C 235.667969 93.644531 235.769531 93.964844 235.878906 94.296875 C 236 95.199219 236 95.199219 235 96.398438 C 233.351562 96.398438 231.699219 96.398438 230 96.398438 C 229.972656 95.675781 229.953125 94.949219 229.9375 94.226562 C 229.925781 93.820312 229.914062 93.417969 229.902344 93 C 230 92 230 92 231 91.601562 Z M 231 91.601562 "/>
<path style=" stroke:none;fill-rule:nonzero;fill:rgb(14.117647%,56.470588%,64.313725%);fill-opacity:1;" d="M 265.5625 101.5 C 266.738281 101.507812 266.738281 101.507812 267.941406 101.519531 C 270 101.601562 270 101.601562 272 102 C 272 102.265625 272 102.527344 272 102.800781 C 269.691406 102.800781 267.378906 102.800781 265 102.800781 C 266.132812 102.980469 267.269531 103.164062 268.4375 103.351562 C 272 104 272 104 273 104.800781 C 269.53125 104.617188 266.324219 104.445312 263 104 C 263 103.472656 263 102.945312 263 102.398438 C 262.011719 102.398438 261.019531 102.398438 260 102.398438 C 260.328125 103.324219 260.660156 104.246094 261 105.199219 C 260.339844 105.199219 259.679688 105.199219 259 105.199219 C 258.3125 104.074219 258.3125 104.074219 258 102.800781 C 260.175781 101.574219 261.914062 101.453125 265.5625 101.5 Z M 265.5625 101.5 "/>
<path style=" stroke:none;fill-rule:nonzero;fill:rgb(13.72549%,51.372549%,61.568627%);fill-opacity:1;" d="M 195 93.199219 C 195.660156 93.199219 196.320312 93.199219 197 93.199219 C 197.328125 94.257812 197.660156 95.3125 198 96.398438 C 199.648438 96.398438 201.300781 96.398438 203 96.398438 C 203.328125 96.003906 203.660156 95.609375 204 95.199219 C 204 95.597656 204 95.992188 204 96.398438 C 206.46875 95.9375 208.046875 95.582031 210 94.800781 C 209.6875 95.75 209.6875 95.75 209 96.800781 C 205.371094 97.769531 203.996094 97.675781 199.875 97.414062 C 198 97.199219 198 97.199219 196 96.523438 C 194.746094 95.367188 194.785156 94.449219 195 93.199219 Z M 195 93.199219 "/>
<path style=" stroke:none;fill-rule:nonzero;fill:rgb(30.980392%,27.45098%,85.098039%);fill-opacity:1;" d="M 160 98.398438 C 160.988281 98.53125 161.980469 98.664062 163 98.800781 C 163 99.59375 163 100.382812 163 101.199219 C 167.453125 101.597656 167.453125 101.597656 172 102 C 172 102.394531 172 102.792969 172 103.199219 C 164.800781 103.390625 164.800781 103.390625 161.5 102.601562 C 159.316406 101.144531 159.71875 100.082031 160 98.398438 Z M 160 98.398438 "/>
<path style=" stroke:none;fill-rule:nonzero;fill:rgb(20.392157%,54.117647%,61.568627%);fill-opacity:1;" d="M 250 104 C 251.320312 104 252.640625 104 254 104 C 254 104.394531 254 104.792969 254 105.199219 C 252.679688 105.199219 251.359375 105.199219 250 105.199219 C 250 105.726562 250 106.257812 250 106.800781 C 252.640625 106.800781 255.28125 106.800781 258 106.800781 C 258 107.0625 258 107.328125 258 107.601562 C 252.71875 107.601562 247.441406 107.601562 242 107.601562 C 242 107.335938 242 107.070312 242 106.800781 C 244.308594 106.800781 246.621094 106.800781 249 106.800781 C 249.328125 105.875 249.660156 104.953125 250 104 Z M 250 104 "/>
<path style=" stroke:none;fill-rule:nonzero;fill:rgb(12.156863%,56.470588%,63.137255%);fill-opacity:1;" d="M 273 104.800781 C 273.328125 105.328125 273.660156 105.855469 274 106.398438 C 271.441406 107.421875 269.523438 107.695312 266 107.726562 C 262.890625 107.679688 260.640625 107.503906 258 106.800781 C 258 106.535156 258 106.273438 258 106 C 260.640625 106.265625 263.28125 106.527344 266 106.800781 C 266 106.535156 266 106.273438 266 106 C 264.351562 105.867188 262.699219 105.734375 261 105.601562 C 261 105.46875 261 105.335938 261 105.199219 C 262.980469 105.199219 264.960938 105.199219 267 105.199219 C 267 105.726562 267 106.257812 267 106.800781 C 268.320312 106.800781 269.640625 106.800781 271 106.800781 C 271.328125 106.402344 271.660156 106.007812 272 105.601562 C 272.328125 105.335938 272.660156 105.070312 273 104.800781 Z M 273 104.800781 "/>
<path style=" stroke:none;fill-rule:nonzero;fill:rgb(9.019608%,49.803922%,57.254902%);fill-opacity:1;" d="M 264 91.199219 C 266.3125 91.1875 268.625 91.179688 270.9375 91.175781 C 272.226562 91.171875 273.511719 91.164062 274.839844 91.160156 C 278 91.199219 278 91.199219 279 91.601562 C 279.074219 92.40625 279.082031 93.214844 279.0625 94.023438 C 279.054688 94.46875 279.042969 94.910156 279.035156 95.363281 C 279.023438 95.707031 279.011719 96.046875 279 96.398438 C 278.671875 96.398438 278.339844 96.398438 278 96.398438 C 278 95.078125 278 93.761719 278 92.398438 C 275.691406 92.398438 273.378906 92.398438 271 92.398438 C 270.671875 92.796875 270.339844 93.191406 270 93.601562 C 270 93.070312 270 92.542969 270 92 C 267.03125 91.800781 267.03125 91.800781 264 91.601562 C 264 91.46875 264 91.335938 264 91.199219 Z M 264 91.199219 "/>
<path style=" stroke:none;fill-rule:nonzero;fill:rgb(1.568627%,58.431373%,70.588235%);fill-opacity:1;" d="M 211 102.800781 C 212.320312 102.800781 213.640625 102.800781 215 102.800781 C 215.328125 104.121094 215.660156 105.441406 216 106.800781 C 214.679688 106.667969 213.359375 106.535156 212 106.398438 C 211.671875 106.003906 211.339844 105.609375 211 105.199219 C 210.339844 105.066406 209.679688 104.9375 209 104.800781 C 209.875 103.25 209.875 103.25 211 102.800781 Z M 211 102.800781 "/>
<path style=" stroke:none;fill-rule:nonzero;fill:rgb(2.352941%,58.039216%,68.627451%);fill-opacity:1;" d="M 220 102.800781 C 221.648438 102.800781 223.300781 102.800781 225 102.800781 C 225.3125 103.875 225.3125 103.875 225 105.199219 C 222.5 106.351562 222.5 106.351562 220 107.199219 C 218.738281 106.191406 219.082031 105.660156 219.4375 104.550781 C 219.539062 104.222656 219.640625 103.894531 219.746094 103.558594 C 219.828125 103.308594 219.914062 103.058594 220 102.800781 Z M 220 102.800781 "/>
<path style=" stroke:none;fill-rule:nonzero;fill:rgb(0.784314%,58.823529%,69.411765%);fill-opacity:1;" d="M 267 92.398438 C 268.5625 93.050781 268.5625 93.050781 270 94 C 269.6875 95.300781 269.6875 95.300781 269 96.398438 C 267.679688 96.398438 266.359375 96.398438 265 96.398438 C 264.804688 93.976562 264.804688 93.976562 265 93.199219 C 265.660156 92.9375 266.320312 92.671875 267 92.398438 Z M 267 92.398438 "/>
<path style=" stroke:none;fill-rule:nonzero;fill:rgb(10.980392%,54.117647%,63.529412%);fill-opacity:1;" d="M 235 91.199219 C 236.257812 91.183594 237.515625 91.167969 238.8125 91.148438 C 239.519531 91.140625 240.226562 91.132812 240.957031 91.121094 C 243 91.199219 243 91.199219 246 92 C 244.019531 92 242.039062 92 240 92 C 239.671875 92.925781 239.339844 93.847656 239 94.800781 C 238.011719 94.800781 237.019531 94.800781 236 94.800781 C 234.523438 93.617188 234.941406 92.503906 235 91.199219 Z M 236 92.398438 C 236.328125 92.929688 236.660156 93.457031 237 94 C 237.660156 93.867188 238.320312 93.734375 239 93.601562 C 239 93.203125 239 92.808594 239 92.398438 C 238.011719 92.398438 237.019531 92.398438 236 92.398438 Z M 236 92.398438 "/>
<path style=" stroke:none;fill-rule:nonzero;fill:rgb(24.705882%,23.137255%,82.745098%);fill-opacity:1;" d="M 152 98.398438 C 152.328125 98.398438 152.660156 98.398438 153 98.398438 C 153.988281 99.984375 154.980469 101.566406 156 103.199219 C 155.339844 103.199219 154.679688 103.199219 154 103.199219 C 153.671875 103.464844 153.339844 103.726562 153 104 C 149.800781 101.144531 149.800781 101.144531 150.8125 99.398438 C 151.203125 99.070312 151.597656 98.738281 152 98.398438 Z M 152 98.398438 "/>
<path style=" stroke:none;fill-rule:nonzero;fill:rgb(10.980392%,53.72549%,62.352941%);fill-opacity:1;" d="M 209 104.800781 C 209.988281 104.933594 210.980469 105.0625 212 105.199219 C 212.328125 105.597656 212.660156 105.992188 213 106.398438 C 214.980469 106.398438 216.960938 106.398438 219 106.398438 C 219.328125 106.796875 219.660156 107.191406 220 107.601562 C 215.753906 107.734375 213.644531 107.777344 210.0625 106.800781 C 209.382812 106.535156 208.703125 106.273438 208 106 C 208.328125 105.605469 208.660156 105.207031 209 104.800781 Z M 209 104.800781 "/>
<path style=" stroke:none;fill-rule:nonzero;fill:rgb(21.960784%,19.215686%,83.529412%);fill-opacity:1;" d="M 183 102 C 183.328125 102 183.660156 102 184 102 C 184.371094 103.339844 184.308594 103.839844 182.1875 104.925781 C 180 105.601562 180 105.601562 177 105.601562 C 177.613281 104.414062 178.253906 103.847656 180 102.800781 C 180.988281 102.800781 181.980469 102.800781 183 102.800781 C 183 102.535156 183 102.273438 183 102 Z M 183 102 "/>
<path style=" stroke:none;fill-rule:nonzero;fill:rgb(0.784314%,58.823529%,70.196078%);fill-opacity:1;" d="M 198 93.601562 C 200.0625 93.773438 200.0625 93.773438 202 94 C 202 94.792969 202 95.585938 202 96.398438 C 200.679688 96.398438 199.359375 96.398438 198 96.398438 C 197.617188 95.601562 197.285156 94.804688 197 94 C 197.328125 93.867188 197.660156 93.734375 198 93.601562 Z M 198 93.601562 "/>
<path style=" stroke:none;fill-rule:nonzero;fill:rgb(26.27451%,29.803922%,69.411765%);fill-opacity:1;" d="M 174 93.199219 C 173.671875 93.597656 173.339844 93.992188 173 94.398438 C 169.699219 94.398438 166.398438 94.398438 163 94.398438 C 162.671875 94.003906 162.339844 93.609375 162 93.199219 C 166.085938 92.585938 169.792969 92.949219 174 93.199219 Z M 174 93.199219 "/>
<path style=" stroke:none;fill-rule:nonzero;fill:rgb(33.333333%,31.372549%,76.470588%);fill-opacity:1;" d="M 169 96.398438 C 169 96.664062 169 96.929688 169 97.199219 C 167.679688 97.199219 166.359375 97.199219 165 97.199219 C 165.328125 97.597656 165.660156 97.992188 166 98.398438 C 165.339844 98.664062 164.679688 98.929688 164 99.199219 C 164.320312 100.441406 164.320312 100.441406 165 101.601562 C 164.011719 101.46875 163.019531 101.335938 162 101.199219 C 162 100 162 98.800781 162 97.601562 C 166.222656 96.398438 166.222656 96.398438 169 96.398438 Z M 169 96.398438 "/>
<path style=" stroke:none;fill-rule:nonzero;fill:rgb(18.431373%,51.372549%,58.823529%);fill-opacity:1;" d="M 204.625 91.324219 C 205.820312 91.382812 205.820312 91.382812 207.039062 91.445312 C 209 91.601562 209 91.601562 210 92 C 210.039062 92.667969 210.042969 93.332031 210 94 C 209.566406 93.808594 209.132812 93.621094 208.6875 93.425781 C 206.976562 92.707031 206.976562 92.707031 204 92.398438 C 204 92.136719 204 91.871094 204 91.601562 C 201.691406 91.730469 199.378906 91.863281 197 92 C 200.324219 91.113281 200.878906 91.121094 204.625 91.324219 Z M 204.625 91.324219 "/>
<path style=" stroke:none;fill-rule:nonzero;fill:rgb(11.764706%,51.372549%,60%);fill-opacity:1;" d="M 248 91.199219 C 252.289062 91.199219 256.578125 91.199219 261 91.199219 C 261 91.464844 261 91.726562 261 92 C 259.824219 92.0625 259.824219 92.0625 258.625 92.125 C 255.667969 92.308594 255.667969 92.308594 254 93.601562 C 254 92.941406 254 92.28125 254 91.601562 C 252.351562 91.601562 250.699219 91.601562 249 91.601562 C 249 91.863281 249 92.128906 249 92.398438 C 248.339844 92.398438 247.679688 92.398438 247 92.398438 C 247.328125 92.003906 247.660156 91.609375 248 91.199219 Z M 248 91.199219 "/>
<path style=" stroke:none;fill-rule:nonzero;fill:rgb(34.117647%,32.156863%,79.215686%);fill-opacity:1;" d="M 153 96 C 153.328125 96.265625 153.660156 96.527344 154 96.800781 C 154.660156 96.933594 155.320312 97.0625 156 97.199219 C 155.339844 98.257812 154.679688 99.3125 154 100.398438 C 153.339844 100.003906 152.679688 99.609375 152 99.199219 C 151.339844 99.726562 150.679688 100.257812 150 100.800781 C 150.855469 97.371094 150.855469 97.371094 153 96 Z M 153 96 "/>
<path style=" stroke:none;fill-rule:nonzero;fill:rgb(4.705882%,55.686275%,63.921569%);fill-opacity:1;" d="M 245 92.398438 C 246.320312 92.53125 247.640625 92.664062 249 92.800781 C 249 93.722656 249 94.648438 249 95.601562 C 247.019531 95.730469 245.039062 95.863281 243 96 C 242.671875 95.472656 242.339844 94.945312 242 94.398438 C 243.320312 94.53125 244.640625 94.664062 246 94.800781 C 245.671875 94.007812 245.339844 93.214844 245 92.398438 Z M 245 92.398438 "/>
<path style=" stroke:none;fill-rule:nonzero;fill:rgb(1.176471%,59.607843%,69.019608%);fill-opacity:1;" d="M 289 91.601562 C 290.320312 91.601562 291.640625 91.601562 293 91.601562 C 293 91.863281 293 92.128906 293 92.398438 C 293.660156 92.398438 294.320312 92.398438 295 92.398438 C 295 92.796875 295 93.191406 295 93.601562 C 294.339844 93.601562 293.679688 93.601562 293 93.601562 C 293.328125 94.128906 293.660156 94.65625 294 95.199219 C 290.910156 94.1875 290.089844 93.109375 289 91.601562 Z M 289 91.601562 "/>
<path style=" stroke:none;fill-rule:nonzero;fill:rgb(14.901961%,54.509804%,60.784314%);fill-opacity:1;" d="M 287 93.601562 C 287.660156 93.601562 288.320312 93.601562 289 93.601562 C 289.328125 94.65625 289.660156 95.710938 290 96.800781 C 291.648438 96.800781 293.300781 96.800781 295 96.800781 C 295 96.140625 295 95.480469 295 94.800781 C 295.328125 94.800781 295.660156 94.800781 296 94.800781 C 296 95.59375 296 96.382812 296 97.199219 C 293.691406 97.199219 291.378906 97.199219 289 97.199219 C 288.875 96.878906 288.753906 96.554688 288.625 96.226562 C 288.316406 95.71875 288.316406 95.71875 288 95.199219 C 287.339844 95.066406 286.679688 94.9375 286 94.800781 C 286.328125 94.402344 286.660156 94.007812 287 93.601562 Z M 287 93.601562 "/>
<path style=" stroke:none;fill-rule:nonzero;fill:rgb(22.745098%,53.333333%,59.607843%);fill-opacity:1;" d="M 258 106 C 263.941406 106.59375 263.941406 106.59375 270 107.199219 C 270 107.332031 270 107.464844 270 107.601562 C 261.429688 107.714844 261.429688 107.714844 258 106.800781 C 258 106.535156 258 106.273438 258 106 Z M 258 106 "/>
<path style=" stroke:none;fill-rule:nonzero;fill:rgb(7.45098%,58.431373%,65.490196%);fill-opacity:1;" d="M 224 93.199219 C 226 93.601562 226 93.601562 227.125 94.550781 C 228 95.601562 228 95.601562 228 96.800781 C 226.679688 96.667969 225.359375 96.535156 224 96.398438 C 224.328125 95.871094 224.660156 95.34375 225 94.800781 C 224.339844 94.667969 223.679688 94.535156 223 94.398438 C 223.328125 94.003906 223.660156 93.609375 224 93.199219 Z M 224 93.199219 "/>
<path style=" stroke:none;fill-rule:nonzero;fill:rgb(21.960784%,56.078431%,61.176471%);fill-opacity:1;" d="M 261 101.601562 C 262.457031 101.589844 263.917969 101.582031 265.375 101.574219 C 266.1875 101.570312 267 101.566406 267.835938 101.5625 C 270 101.601562 270 101.601562 272 102 C 272 102.265625 272 102.527344 272 102.800781 C 269.359375 102.800781 266.71875 102.800781 264 102.800781 C 264 102.535156 264 102.273438 264 102 C 263.011719 101.867188 262.019531 101.734375 261 101.601562 Z M 261 101.601562 "/>
<path style=" stroke:none;fill-rule:nonzero;fill:rgb(22.745098%,23.529412%,82.352941%);fill-opacity:1;" d="M 178 95.199219 C 180.476562 95.398438 180.476562 95.398438 183 95.601562 C 183 96.128906 183 96.65625 183 97.199219 C 182.011719 97.199219 181.019531 97.199219 180 97.199219 C 179.339844 96.539062 178.679688 95.878906 178 95.199219 Z M 178 95.199219 "/>
<path style=" stroke:none;fill-rule:nonzero;fill:rgb(20%,52.941176%,58.039216%);fill-opacity:1;" d="M 213 94.398438 C 213.328125 94.664062 213.660156 94.929688 214 95.199219 C 215.648438 95.199219 217.300781 95.199219 219 95.199219 C 218.359375 95.308594 217.722656 95.414062 217.0625 95.523438 C 214.667969 95.953125 214.667969 95.953125 214 97.199219 C 213.011719 97.199219 212.019531 97.199219 211 97.199219 C 211.660156 96.277344 212.320312 95.351562 213 94.398438 Z M 213 94.398438 "/>
<path style=" stroke:none;fill-rule:nonzero;fill:rgb(0%,0%,100%);fill-opacity:1;" d="M 185 103.199219 C 185.660156 103.332031 186.320312 103.464844 187 103.601562 C 185.25 104.773438 185.25 104.773438 183 106 C 181.679688 106.132812 180.359375 106.265625 179 106.398438 C 180.980469 105.34375 182.960938 104.289062 185 103.199219 Z M 185 103.199219 "/>
<path style=" stroke:none;fill-rule:nonzero;fill:rgb(14.509804%,59.215686%,67.843137%);fill-opacity:1;" d="M 215 92 C 215.125 92.253906 215.246094 92.511719 215.375 92.773438 C 215.582031 93.046875 215.789062 93.320312 216 93.601562 C 216.660156 93.730469 217.320312 93.863281 218 94 C 217.339844 94 216.679688 94 216 94 C 216 94.265625 216 94.527344 216 94.800781 C 216.988281 94.667969 217.980469 94.535156 219 94.398438 C 219 94.664062 219 94.929688 219 95.199219 C 217.351562 95.199219 215.699219 95.199219 214 95.199219 C 214.328125 94.144531 214.660156 93.089844 215 92 Z M 215 92 "/>
<path style=" stroke:none;fill-rule:nonzero;fill:rgb(7.058824%,60%,72.156863%);fill-opacity:1;" d="M 228 103.199219 C 228.125 103.457031 228.246094 103.710938 228.375 103.976562 C 228.582031 104.246094 228.789062 104.519531 229 104.800781 C 229.660156 104.933594 230.320312 105.0625 231 105.199219 C 231.328125 105.597656 231.660156 105.992188 232 106.398438 C 230.679688 106.398438 229.359375 106.398438 228 106.398438 C 228 105.34375 228 104.289062 228 103.199219 Z M 228 103.199219 "/>
<path style=" stroke:none;fill-rule:nonzero;fill:rgb(4.705882%,57.647059%,65.490196%);fill-opacity:1;" d="M 241 103.199219 C 241.988281 103.398438 241.988281 103.398438 243 103.601562 C 243.40625 104.527344 243.746094 105.460938 244 106.398438 C 243.011719 106.398438 242.019531 106.398438 241 106.398438 C 241 105.34375 241 104.289062 241 103.199219 Z M 241 103.199219 "/>
<path style=" stroke:none;fill-rule:nonzero;fill:rgb(22.745098%,63.137255%,70.588235%);fill-opacity:1;" d="M 240 102 C 240.988281 102 241.980469 102 243 102 C 243 102.394531 243 102.792969 243 103.199219 C 242.339844 103.199219 241.679688 103.199219 241 103.199219 C 241 104.257812 241 105.3125 241 106.398438 C 240.671875 106.398438 240.339844 106.398438 240 106.398438 C 240 104.949219 240 103.496094 240 102 Z M 240 102 "/>
<path style=" stroke:none;fill-rule:nonzero;fill:rgb(24.705882%,27.058824%,76.470588%);fill-opacity:1;" d="M 174 96 C 175.320312 96 176.640625 96 178 96 C 178 96.527344 178 97.054688 178 97.601562 C 176.679688 97.601562 175.359375 97.601562 174 97.601562 C 174 97.070312 174 96.542969 174 96 Z M 174 96 "/>
</g>
</svg>
