<?xml version="1.0" encoding="UTF-8"?>
<svg version="1.1" xmlns="http://www.w3.org/2000/svg" width="169" height="31">
<path d="M0 0 C3.7828017 1.91453725 6.11239253 4.22478505 8 8 C8.23110989 10.583165 8.36983639 13.09995017 8.4375 15.6875 C8.48326172 16.38294922 8.52902344 17.07839844 8.57617188 17.79492188 C8.66428462 21.89791094 8.02885487 24.60857449 5.59765625 27.96484375 C2.96957023 30.68070093 0.99260863 31.51933153 -2.75 31.9296875 C-4.4999977 31.94813627 -6.25073901 31.9290213 -8 31.875 C-9.31484375 31.91560547 -9.31484375 31.91560547 -10.65625 31.95703125 C-14.24400159 31.91920857 -16.92363388 31.73681931 -19.93017578 29.67871094 C-23.42290741 26.05392307 -24.77398396 22.69454865 -24.9375 17.69311523 C-24.916875 16.96938721 -24.89625 16.24565918 -24.875 15.5 C-24.85695313 14.75113525 -24.83890625 14.00227051 -24.8203125 13.23071289 C-24.54745183 8.90994522 -24.03764943 5.72491172 -21 2.4375 C-14.8296138 -1.66873196 -7.01915433 -1.194282 0 0 Z M-19.375 9.75 C-20.82399408 14.96637867 -20.70053657 18.64896519 -18.25 23.375 C-14.8538211 27.33720871 -13.34221819 27.87010792 -8.125 28.375 C-3.81214034 28.26235068 -1.29720929 26.82617939 2 24 C4.81059853 20.4228746 4.21045601 16.34942414 4 12 C3.67 11.34 3.34 10.68 3 10 C2.34 10 1.68 10 1 10 C0.79503906 10.85464844 0.59007813 11.70929687 0.37890625 12.58984375 C0.10949219 13.69457031 -0.15992187 14.79929687 -0.4375 15.9375 C-0.70433594 17.03964844 -0.97117187 18.14179688 -1.24609375 19.27734375 C-2 22 -2 22 -3 23 C-4.9609375 23.203125 -4.9609375 23.203125 -7.375 23.25 C-8.16648437 23.27578125 -8.95796875 23.3015625 -9.7734375 23.328125 C-12 23 -12 23 -13.765625 21.734375 C-15.92313678 18.7029344 -15.52092906 15.56464317 -15 12 C-14 10.0625 -14 10.0625 -12 9 C-10.65056918 8.79855123 -9.29513772 8.63551738 -7.9375 8.5 C-6.638125 8.335 -5.33875 8.17 -4 8 C-3.34 7.01 -2.68 6.02 -2 5 C-8.50822896 1.74588552 -15.08835576 4.29427097 -19.375 9.75 Z M-10 13 C-10.33 14.65 -10.66 16.3 -11 18 C-8.525 18.495 -8.525 18.495 -6 19 C-5.67 17.35 -5.34 15.7 -5 14 C-6.65 13.67 -8.3 13.34 -10 13 Z " fill="#5E53FF" transform="translate(28,0)"/>
<path d="M0 0 C0.50361366 4.23035473 0.20929985 5.70584886 -2.3125 9.25 C-5 12 -5 12 -8 14 C-8.99 14 -9.98 14 -11 14 C-10.84518205 11.29068581 -10.51827919 9.53415961 -8.59765625 7.5546875 C-7.10228292 6.32320358 -5.5537076 5.1570163 -4 4 C-8.22448388 5.56462366 -10.40096753 8.41754984 -13 12 C-13.86542699 14.72113503 -13.86542699 14.72113503 -14 17 C-13.34 17.33 -12.68 17.66 -12 18 C-6.58104968 15.6232674 -1.92929759 12.68269877 2.82421875 9.171875 C5.3982592 7.78549774 7.11839442 7.77794983 10 8 C9.67 9.98 9.34 11.96 9 14 C10.65177773 12.34822227 11.17252291 10.15144042 12 8 C14.31 8 16.62 8 19 8 C18.67 9.98 18.34 11.96 18 14 C21.10443277 13.3384196 21.10443277 13.3384196 22.125 11 C22.41375 10.34 22.7025 9.68 23 9 C24 8 24 8 27.0625 7.9375 C28.5165625 7.9684375 28.5165625 7.9684375 30 8 C29.67 9.32 29.34 10.64 29 12 C30.08718141 10.96249899 30.08718141 10.96249899 31.14453125 9.44921875 C33.92347011 7.27872124 36.22432271 7.70963335 39.6875 7.8125 C41.45673828 7.85310547 41.45673828 7.85310547 43.26171875 7.89453125 C44.61716797 7.94673828 44.61716797 7.94673828 46 8 C46.2165625 8.9590625 46.2165625 8.9590625 46.4375 9.9375 C46.81007181 11.97545146 46.81007181 11.97545146 48 13 C47.3125 14.9375 47.3125 14.9375 46 17 C43.375 17.75 43.375 17.75 41 18 C40.505 16.515 40.505 16.515 40 15 C39.46375 15.495 38.9275 15.99 38.375 16.5 C35.40641555 18.37489544 33.44687573 18.23501425 30 18 C29.505 17.01 29.505 17.01 29 16 C28.34 16.66 27.68 17.32 27 18 C23.875 18.125 23.875 18.125 21 18 C20.505 17.01 20.505 17.01 20 16 C19.01 16.66 18.02 17.32 17 18 C15.68 18 14.36 18 13 18 C12.67 17.34 12.34 16.68 12 16 C11.401875 16.495 10.80375 16.99 10.1875 17.5 C8 19 8 19 5 19 C4.67 18.34 4.34 17.68 4 17 C3.38125 17.20625 2.7625 17.4125 2.125 17.625 C1.42375 17.74875 0.7225 17.8725 0 18 C-0.66 17.34 -1.32 16.68 -2 16 C-2.7425 16.61875 -3.485 17.2375 -4.25 17.875 C-9.7277628 22.10781671 -9.7277628 22.10781671 -14.6875 21.6875 C-18 21 -18 21 -19 20 C-19.66359408 15.35484146 -19.11121592 12.62246885 -16.4375 8.875 C-11.85635885 3.33451399 -7.59607266 -0.92635032 0 0 Z M26 13 C25.34 13.66 24.68 14.32 24 15 C25.32 14.67 26.64 14.34 28 14 C27.34 13.67 26.68 13.34 26 13 Z M35 13 C34.34 13.66 33.68 14.32 33 15 C34.32 14.67 35.64 14.34 37 14 C36.34 13.67 35.68 13.34 35 13 Z " fill="#FFFFFF" transform="translate(59,5)"/>
<path d="M0 0 C0.33 0.33 0.66 0.66 1 1 C0.88403201 7.03033525 0.88403201 7.03033525 -1.37109375 9.50390625 C-2.87851348 10.71490292 -4.43763283 11.86077394 -6 13 C-6.33 13.66 -6.66 14.32 -7 15 C-5.02 15 -3.04 15 -1 15 C-0.87625 14.21625 -0.7525 13.4325 -0.625 12.625 C0 10 0 10 2 8 C2.99 8 3.98 8 5 8 C5.33 8.66 5.66 9.32 6 10 C6.66 9.34 7.32 8.68 8 8 C8.99 8 9.98 8 11 8 C10.49396008 10.16874252 10.00016187 11.99967627 9 14 C9.66 14 10.32 14 11 14 C11.433125 13.071875 11.433125 13.071875 11.875 12.125 C13 10 13 10 15 8 C17.625 7.875 17.625 7.875 20 8 C19.6875 9.875 19.6875 9.875 19 12 C18.01 12.66 17.02 13.32 16 14 C18.91567804 12.85455505 20.08356761 11.89364122 22.0625 9.375 C23.0215625 8.199375 23.0215625 8.199375 24 7 C24.99 7 25.98 7 27 7 C27.495 9.97 27.495 9.97 28 13 C28.226875 12.236875 28.45375 11.47375 28.6875 10.6875 C30.28947134 7.40727297 31.72626 6.51709902 35 5 C35.99 5 36.98 5 38 5 C38.495 6.485 38.495 6.485 39 8 C37 11 37 11 34 12 C34 12.66 34 13.32 34 14 C34.99 13.67 35.98 13.34 37 13 C37 13.99 37 14.98 37 16 C34.11165997 18.10770759 32.61537605 19 29 19 C28.505 18.01 28.505 18.01 28 17 C27.01 17.495 27.01 17.495 26 18 C23.68851505 18.07160734 21.3749941 18.08397827 19.0625 18.0625 C17.19271484 18.04896484 17.19271484 18.04896484 15.28515625 18.03515625 C14.20105469 18.02355469 13.11695313 18.01195313 12 18 C9.0414693 17.89523546 9.0414693 17.89523546 6.375 18.5625 C5.199375 18.7790625 5.199375 18.7790625 4 19 C3.67 18.67 3.34 18.34 3 18 C1.66499764 18.32658472 0.33191806 18.66105578 -1 19 C-3.76876481 18.91382359 -6.49165074 18.77449327 -9.25 18.5625 C-9.99507813 18.51029297 -10.74015625 18.45808594 -11.5078125 18.40429688 C-13.33894861 18.2751783 -15.16953813 18.13834886 -17 18 C-16.734375 16.12109375 -16.734375 16.12109375 -16 14 C-14.328125 12.91015625 -14.328125 12.91015625 -12.25 12.0625 C-8.26643963 10.26416609 -5.89134187 8.25275961 -3 5 C-3.99 5 -4.98 5 -6 5 C-6.66 5.66 -7.32 6.32 -8 7 C-11.69230769 10 -11.69230769 10 -14 10 C-14 8.02 -14 6.04 -14 4 C-9.06412851 0.77657372 -6.07942506 -0.60794251 0 0 Z M23 12 C22.67 12.66 22.34 13.32 22 14 C22.66 14 23.32 14 24 14 C23.67 13.34 23.34 12.68 23 12 Z " fill="#FFFFFF" transform="translate(124,5)"/>
</svg>
